<?xml version="1.0" encoding="iso-8859-1"?>
<!-- Generator: Adobe Illustrator 19.0.0, SVG Export Plug-In . SVG Version: 6.00 Build 0)  -->
<svg version="1.1" id="Capa_1" xmlns="http://www.w3.org/2000/svg" xmlns:xlink="http://www.w3.org/1999/xlink" x="0px" y="0px"
	 viewBox="0 0 504.986 504.986" style="enable-background:new 0 0 504.986 504.986;" xml:space="preserve">
<g>
	<g>
		<path d="M105.907,204.449l-22.444-22.444c2.805-5.611,4.208-11.923,4.208-18.236c0-23.145-18.937-42.082-42.082-42.082
			S3.507,140.625,3.507,163.77s18.937,42.082,42.082,42.082c6.312,0,12.625-1.403,17.534-4.208l18.236,18.236v28.055l-49.096,50.499
			c-2.805,2.805-4.208,6.312-4.208,9.819v39.277C11.923,353.14,0,368.57,0,386.805c0,23.145,18.937,42.082,42.082,42.082
			s42.082-18.937,42.082-42.082c0-18.236-11.923-33.666-28.055-39.978v-32.964l49.797-49.797c2.805-2.805,4.208-6.312,4.208-9.819
			v-39.978C110.115,210.762,108.712,207.255,105.907,204.449z M46.29,177.096c-7.715,0-14.027-6.312-14.027-14.027
			s6.312-14.027,14.027-14.027c7.715,0,14.027,6.312,14.027,14.027C60.318,170.784,54.005,177.096,46.29,177.096z M42.082,400.833
			c-7.715,0-14.027-6.312-14.027-14.027c0-7.715,6.312-14.027,14.027-14.027s14.027,6.312,14.027,14.027
			C56.11,394.521,49.797,400.833,42.082,400.833z"/>
	</g>
</g>
<g>
	<g>
		<path d="M173.238,0.351c-23.145,0-42.082,18.937-42.082,42.082c0,18.236,11.923,33.666,28.055,39.277v232.855l-35.77,35.77
			c-2.805,2.805-4.208,6.312-4.208,9.819v63.123c-16.132,5.611-28.055,21.041-28.055,39.277c0,23.145,18.937,42.082,42.082,42.082
			c23.145,0,42.082-18.937,42.082-42.082c0-18.236-11.923-33.666-28.055-39.277v-56.811l35.77-35.77
			c2.805-2.805,4.208-6.312,4.208-9.819V82.411c16.132-5.611,28.055-21.041,28.055-39.277
			C215.321,19.288,196.384,0.351,173.238,0.351z M133.26,477.282c-7.715,0-14.027-6.312-14.027-14.027
			c0-7.715,6.312-14.027,14.027-14.027c7.715,0,14.027,6.312,14.027,14.027C147.288,470.97,140.975,477.282,133.26,477.282z
			 M173.238,56.46c-7.715,0-14.027-6.312-14.027-14.027s6.312-14.027,14.027-14.027c7.715,0,14.027,6.312,14.027,14.027
			S180.953,56.46,173.238,56.46z"/>
	</g>
</g>
<g>
	<g>
		<path d="M261.611,422.575V273.184c16.132-5.611,28.055-21.743,28.055-39.978c0-23.145-18.937-42.082-42.082-42.082
			s-42.082,18.937-42.082,42.082c0,18.236,11.923,33.666,28.055,39.277v150.794c-16.131,5.611-28.055,21.041-28.055,39.277
			c0,23.145,18.937,42.082,42.082,42.082s42.082-18.937,42.082-42.082C289.666,444.318,277.742,428.888,261.611,422.575z
			 M247.584,219.178c7.715,0,14.027,6.312,14.027,14.027c0,7.715-6.312,14.027-14.027,14.027c-7.715,0-14.027-6.312-14.027-14.027
			C233.556,225.49,239.869,219.178,247.584,219.178z M247.584,477.282c-7.715,0-14.027-6.312-14.027-14.027
			c0-7.715,6.312-14.027,14.027-14.027c7.715,0,14.027,6.312,14.027,14.027C261.611,470.97,255.299,477.282,247.584,477.282z"/>
	</g>
</g>
<g>
	<g>
		<path d="M476.932,346.827v-39.277c0-3.507-1.403-7.014-4.208-9.819l-49.797-49.797v-28.055l18.236-18.236
			c5.611,2.805,11.222,4.208,17.534,4.208c23.145,0,42.082-18.937,42.082-42.082s-18.937-42.082-42.082-42.082
			s-42.082,18.937-42.082,42.082c0,6.312,1.403,12.625,4.208,18.236l-22.444,22.444c-2.104,2.805-3.507,6.312-3.507,9.819v39.978
			c0,3.507,1.403,7.014,4.208,9.819l49.797,49.797v32.964c-16.131,5.611-28.055,21.041-28.055,39.277
			c0,23.145,18.937,42.082,42.082,42.082s42.082-18.937,42.082-42.082C504.986,368.57,493.063,353.14,476.932,346.827z
			 M458.696,149.041c7.715,0,14.027,6.312,14.027,14.027s-6.312,14.027-14.027,14.027c-7.715,0-14.027-6.312-14.027-14.027
			S450.981,149.041,458.696,149.041z M462.904,400.833c-7.715,0-14.027-6.312-14.027-14.027c0-7.715,6.312-14.027,14.027-14.027
			c7.715,0,14.027,6.312,14.027,14.027C476.932,394.521,470.619,400.833,462.904,400.833z"/>
	</g>
</g>
<g>
	<g>
		<path d="M385.753,423.978v-63.123c0-3.507-1.403-7.014-4.208-9.819l-35.77-35.77V81.71c16.131-5.611,28.055-21.041,28.055-39.277
			c0-23.145-18.937-42.082-42.082-42.082s-42.082,18.937-42.082,42.082c0,18.236,11.923,33.666,28.055,39.277v238.466
			c0,3.507,1.403,7.014,4.208,9.819l35.77,35.77v56.811c-16.132,5.611-28.055,21.041-28.055,39.277
			c0,23.145,18.937,42.082,42.082,42.082s42.082-18.937,42.082-42.082C413.808,445.019,401.885,429.589,385.753,423.978z
			 M331.748,56.46c-7.715,0-14.027-6.312-14.027-14.027s6.312-14.027,14.027-14.027c7.715,0,14.027,6.312,14.027,14.027
			S339.463,56.46,331.748,56.46z M371.726,477.282c-7.715,0-14.027-6.312-14.027-14.027c0-7.715,6.312-14.027,14.027-14.027
			c7.715,0,14.027,6.312,14.027,14.027C385.753,470.97,379.441,477.282,371.726,477.282z"/>
	</g>
</g>
<g>
</g>
<g>
</g>
<g>
</g>
<g>
</g>
<g>
</g>
<g>
</g>
<g>
</g>
<g>
</g>
<g>
</g>
<g>
</g>
<g>
</g>
<g>
</g>
<g>
</g>
<g>
</g>
<g>
</g>
</svg>
